<?xml version="1.0" encoding="utf-8"?>
<!-- Generator: Adobe Illustrator 16.0.0, SVG Export Plug-In . SVG Version: 6.00 Build 0)  -->
<!DOCTYPE svg PUBLIC "-//W3C//DTD SVG 1.1//EN" "http://www.w3.org/Graphics/SVG/1.1/DTD/svg11.dtd">
<svg version="1.1" id="Capa_1" xmlns="http://www.w3.org/2000/svg" xmlns:xlink="http://www.w3.org/1999/xlink" x="0px" y="0px"
	 width="612px" height="310px" viewBox="0 241.5 612 310" enable-background="new 0 241.5 612 310" xml:space="preserve">
<g>
	<g>
		<path fill="#FFFFFF" d="M604.988,379.078c-0.008-0.007-0.014-0.016-0.021-0.023L480.052,254.743
			c-9.357-9.313-24.494-9.278-33.81,0.082c-9.313,9.358-9.277,24.494,0.08,33.808l83.868,83.461H23.906
			C10.703,372.094,0,382.796,0,396c0,13.203,10.703,23.906,23.906,23.906h506.284l-83.865,83.462
			c-9.358,9.313-9.396,24.45-0.08,33.808c9.313,9.36,24.452,9.394,33.809,0.081l124.915-124.313
			c0.008-0.007,0.015-0.016,0.021-0.022C614.354,403.577,614.322,388.392,604.988,379.078z"/>
	</g>
</g>
</svg>
